<!-- icon666.com - MILLIONS vector ICONS FREE -->
<svg width="80" height="80" viewBox="0 0 96 96" xmlns="http://www.w3.org/2000/svg">
    <g id="Sparkler">
        <path d="m66.54 35.43-30.3 30.31a4.7 4.7 0 0 0 -.63 5.89l-8.16 8.16v-8.46a4.73 4.73 0 0 0 3.72-4.6v-42.86a4.72 4.72 0 1 0 -9.44 0v42.86a4.72 4.72 0 0 0 3.72 4.6v10.46l-5 5a1 1 0 1 0 1.42 1.42l3.58-3.58v8.15a1 1 0 0 0 2 0v-10.16l9.55-9.62a4.71 4.71 0 0 0 5.89-.63l30.31-30.3a4.72 4.72 0 0 0 -6.68-6.68zm-40.09-14.28a2.72 2.72 0 1 1 -2.72 2.72 2.72 2.72 0 0 1 2.72-2.72zm-2.72 45.58v-39a4.65 4.65 0 0 0 5.44 0v39a2.72 2.72 0 0 1 -5.44 0zm46.15-30.68a2.72 2.72 0 1 1 -1.88 4.64 2.72 2.72 0 0 1 1.88-4.64zm-28.38 34.95a2.72 2.72 0 1 1 -3.85-3.85l27.59-27.58a4.66 4.66 0 0 0 3.84 3.84z" fill="#000000" style="fill: rgb(44, 52, 77);"></path>
        <path d="m26.45 13.83a1 1 0 0 0 1-1v-4.09a1 1 0 1 0 -2 0v4.09a1 1 0 0 0 1 1z" fill="#000000" style="fill: rgb(44, 52, 77);"></path>
        <path d="m16.46 12.46a1 1 0 0 0 -1.46 1.42l2.9 2.89a1 1 0 0 0 1.41-1.41z" fill="#000000" style="fill: rgb(44, 52, 77);"></path>
        <path d="m15.41 24.87a1 1 0 0 0 0-2h-4.09a1 1 0 1 0 0 2z" fill="#000000" style="fill: rgb(44, 52, 77);"></path>
        <path d="m17.94 31-2.94 2.86a1 1 0 0 0 0 1.41 1 1 0 0 0 1.42 0l2.89-2.89a1 1 0 0 0 0-1.42 1 1 0 0 0 -1.37.04z" fill="#000000" style="fill: rgb(44, 52, 77);"></path>
        <path d="m27.45 39v-4.1a1 1 0 0 0 -2 0v4.1a1 1 0 0 0 2 0z" fill="#000000" style="fill: rgb(44, 52, 77);"></path>
        <path d="m36.44 35.27a1 1 0 0 0 1.41-1.41l-2.85-2.86a1 1 0 0 0 -1.42 1.42z" fill="#000000" style="fill: rgb(44, 52, 77);"></path>
        <path d="m36.48 23.87a1 1 0 0 0 1 1h4.1a1 1 0 0 0 0-2h-4.1a1 1 0 0 0 -1 1z" fill="#000000" style="fill: rgb(44, 52, 77);"></path>
        <path d="m34.25 17.06a1 1 0 0 0 .71-.29l2.89-2.89a1 1 0 0 0 0-1.42 1 1 0 0 0 -1.41 0l-2.9 2.9a1 1 0 0 0 .71 1.7z" fill="#000000" style="fill: rgb(44, 52, 77);"></path>
        <path d="m69.88 27.27a1 1 0 0 0 1-1v-4.63a1 1 0 0 0 -2 0v4.63a1 1 0 0 0 1 1z" fill="#000000" style="fill: rgb(44, 52, 77);"></path>
        <path d="m60.33 30.64a1 1 0 0 0 1.42-1.42l-3.28-3.22a1 1 0 0 0 -1.41 1.41z" fill="#000000" style="fill: rgb(44, 52, 77);"></path><path d="m52.75 39.77h4.63a1 1 0 0 0 0-2h-4.63a1 1 0 0 0 0 2z" fill="#000000" style="fill: rgb(44, 52, 77);"></path><path d="m60.33 46.9-3.27 3.28a1 1 0 1 0 1.41 1.41l3.28-3.27a1 1 0 0 0 -1.42-1.42z" fill="#000000" style="fill: rgb(44, 52, 77);"></path><path d="m69.88 56.9a1 1 0 0 0 1-1v-4.63a1 1 0 0 0 -2 0v4.63a1 1 0 0 0 1 1z" fill="#000000" style="fill: rgb(44, 52, 77);"></path><path d="m79.42 46.9a1 1 0 0 0 -1.41 0 1 1 0 0 0 0 1.42l3.28 3.27a1 1 0 0 0 .7.29 1 1 0 0 0 .71-1.7z" fill="#000000" style="fill: rgb(44, 52, 77);"></path><path d="m87 37.77h-4.62a1 1 0 0 0 0 2h4.62a1 1 0 0 0 0-2z" fill="#000000" style="fill: rgb(44, 52, 77);"></path><path d="m78 30.64a1 1 0 0 0 1.41 0l3.28-3.28a1 1 0 0 0 -1.4-1.36l-3.29 3.22a1 1 0 0 0 0 1.42z" fill="#000000" style="fill: rgb(44, 52, 77);"></path><path d="m8.73 44.59-1.79 1.79a1 1 0 0 0 1.41 1.41l1.79-1.79a1 1 0 0 0 -1.41-1.41z" fill="#000000" style="fill: rgb(44, 52, 77);"></path><path d="m39.42 47.09-2.49-2.5a1 1 0 0 0 -1.42 0 1 1 0 0 0 0 1.41l2.49 2.5a1 1 0 0 0 1.41 0 1 1 0 0 0 .01-1.41z" fill="#000000" style="fill: rgb(44, 52, 77);"></path><path d="m38.7 54.12h-2.08a1 1 0 0 0 0 2h2.08a1 1 0 0 0 0-2z" fill="#000000" style="fill: rgb(44, 52, 77);"></path><path d="m12.31 54.12a1 1 0 0 0 -1 1v2.48a1 1 0 0 0 2 0v-2.48a1 1 0 0 0 -1-1z" fill="#000000" style="fill: rgb(44, 52, 77);"></path><path d="m4.91 32.19-2.78 1.06a1 1 0 1 0 .72 1.87l2.77-1.07a1 1 0 1 0 -.71-1.86z" fill="#000000" style="fill: rgb(44, 52, 77);"></path><path d="m5.27 17.13a1 1 0 0 0 .33-1.94l-4.27-1.52a1 1 0 0 0 -.66 1.89c4.61 1.64 4.33 1.57 4.6 1.57z" fill="#000000" style="fill: rgb(44, 52, 77);"></path><path d="m18 2.76a1 1 0 0 0 -1.63 1.14l1.86 2.68a1 1 0 0 0 .83.43 1 1 0 0 0 .82-1.57z" fill="#000000" style="fill: rgb(44, 52, 77);"></path><path d="m45.74 19.11a20.94 20.94 0 0 0 3-.61 1 1 0 0 0 -.42-2l-2.78.6a1 1 0 0 0 -.76 1.18 1 1 0 0 0 .96.83z" fill="#000000" style="fill: rgb(44, 52, 77);"></path><path d="m60.48 18.16a1 1 0 1 0 1.87-.69l-1.19-3.2a1 1 0 0 0 -1.28-.59 1 1 0 0 0 -.59 1.32z" fill="#000000" style="fill: rgb(44, 52, 77);"></path><path d="m36.62 5.67c.3 0 .13 0 3.35-1.54a1 1 0 1 0 -.88-1.79l-2.92 1.43a1 1 0 0 0 .45 1.9z" fill="#000000" style="fill: rgb(44, 52, 77);"></path><path d="m48.06 8.07a9.85 9.85 0 0 0 1.75.43 1 1 0 0 0 .26-2l-1.49-.39a1 1 0 0 0 -.52 1.93z" fill="#000000" style="fill: rgb(44, 52, 77);"></path><path d="m45.84 32.65a1 1 0 0 0 0 2h2.16a1 1 0 0 0 0-2z" fill="#000000" style="fill: rgb(44, 52, 77);"></path><path d="m58.45 66.34a1 1 0 0 0 -1.18.77l-.87 4a1 1 0 0 0 2 .42l.86-4a1 1 0 0 0 -.81-1.19z" fill="#000000" style="fill: rgb(44, 52, 77);"></path><path d="m69.09 65.45a1 1 0 1 0 -1.46 1.36l3 3.2a1 1 0 0 0 .73.32 1 1 0 0 0 .73-1.68z" fill="#000000" style="fill: rgb(44, 52, 77);"></path><path d="m80.36 58.14a1 1 0 0 0 -1 1v2.86a1 1 0 0 0 2 0v-2.86a1 1 0 0 0 -1-1z" fill="#000000" style="fill: rgb(44, 52, 77);"></path><path d="m95.79 49.59-2.08-2.67a1 1 0 1 0 -1.58 1.22l2.08 2.68a1 1 0 0 0 1.4.18 1 1 0 0 0 .18-1.41z" fill="#000000" style="fill: rgb(44, 52, 77);"></path><path d="m93.06 25a1 1 0 0 0 .49-1.87l-2.67-1.49a1 1 0 0 0 -1.36.39 1 1 0 0 0 .39 1.36c2.84 1.53 2.8 1.61 3.15 1.61z" fill="#000000" style="fill: rgb(44, 52, 77);"></path><path d="m78.44 17.1-.3-4.34a1 1 0 1 0 -2 .14l.29 4.34a1 1 0 0 0 2-.14z" fill="#000000" style="fill: rgb(44, 52, 77);"></path>
    </g>
</svg>